<svg id="Capa_1" enable-background="new 0 0 512 512" height="512" viewBox="0 0 512 512" width="512" xmlns="http://www.w3.org/2000/svg"><g><g><g><g><g><g><g><circle cx="256" cy="256" fill="#00c8c8" r="256"/></g></g></g></g></g></g><path d="m512 256c0-20.705-2.458-40.836-7.098-60.117l-117.282-117.282-263.24 354.798 71.503 71.503c19.281 4.64 39.412 7.098 60.117 7.098 141.385 0 256-114.615 256-256z" fill="#1cadb5"/><g><path d="m169.385 78.601-45.005 45.005v309.793h263.24v-354.798z" fill="#fff"/></g><g><path d="m256 78.601h131.62v354.798h-131.62z" fill="#e9edf5"/></g><g><path d="m169.385 123.606v-45.005l-45.005 45.005z" fill="#e9edf5"/></g><path d="m256 96.948c-49.641 0-90.026 40.386-90.026 90.026s40.385 90.026 90.026 90.026 90.026-40.385 90.026-90.026-40.385-90.026-90.026-90.026zm58.129 75.026h-17.848c-.763-11.828-2.446-23.322-5.106-33.614 11.146 8.087 19.416 19.91 22.954 33.614zm-68.344 30h20.43c-1.597 21.48-6.401 36.141-10.215 42.503-3.813-6.362-8.618-21.023-10.215-42.503zm0-30c1.597-21.48 6.402-36.141 10.215-42.504 3.813 6.363 8.618 21.024 10.215 42.504zm-24.96-33.614c-2.66 10.292-4.344 21.786-5.107 33.614h-17.848c3.539-13.704 11.809-25.526 22.955-33.614zm-22.954 63.614h17.848c.763 11.828 2.446 23.322 5.107 33.614-11.147-8.088-19.417-19.91-22.955-33.614zm93.303 33.614c2.66-10.292 4.344-21.786 5.106-33.614h17.848c-3.537 13.704-11.807 25.526-22.954 33.614z" fill="#7584f2"/><path d="m256 96.948v30 2.523c3.813 6.363 8.618 21.024 10.215 42.504h-10.215v30h10.215c-1.597 21.48-6.401 36.141-10.215 42.503v2.522 30c49.641 0 90.026-40.385 90.026-90.026s-40.385-90.026-90.026-90.026zm35.174 41.412c11.147 8.088 19.416 19.91 22.955 33.614h-17.848c-.763-11.828-2.446-23.322-5.107-33.614zm0 97.228c2.66-10.292 4.344-21.786 5.106-33.614h17.848c-3.537 13.704-11.807 25.526-22.954 33.614z" fill="#606aea"/><g><path d="m156.308 298.513h199.384v30.299h-199.384z" fill="#ffce00"/></g><g><path d="m256 298.514h99.692v30.299h-99.692z" fill="#fdba12"/></g><g><path d="m156.308 352.283h199.384v30.299h-199.384z" fill="#ffce00"/></g><g><path d="m256 352.283h99.692v30.299h-99.692z" fill="#fdba12"/></g></g></svg>