<svg height="512" viewBox="0 0 512 512" width="512" xmlns="http://www.w3.org/2000/svg"><g><g><path d="m496 128v284a19.994 19.994 0 0 1 -20 20h-440a19.994 19.994 0 0 1 -20-20v-284z" fill="#e0e0e2"/><rect fill="#78b9eb" height="216" rx="20" width="192" x="160" y="168"/><g><path d="m294.89 223.55c-47.38 23.33-78.89 15.45-78.89 15.45v-7a40.015 40.015 0 0 1 40-40 39.305 39.305 0 0 1 28.28 12.22 41.7 41.7 0 0 1 10.53 19.02c.03.1.06.21.08.31z" fill="#ff5023"/><path d="m296 233v31a40 40 0 0 1 -80 0v-25s31.51 7.88 78.89-15.45a40.59 40.59 0 0 1 1.11 9.45z" fill="#ffdaaa"/><path d="m296 223c-.37.19-.74.37-1.11.55-.02-.1-.05-.21-.08-.31z" fill="#e0e0e2"/><path d="m272 320h16a40 40 0 0 1 40 40v24h-144v-24a40 40 0 0 1 40-40z" fill="#006df0"/><path d="m272 304v16a16 16 0 0 1 -32 0v-16z" fill="#ffdaaa"/></g><path d="m496 100v28h-480v-28a19.994 19.994 0 0 1 20-20h440a19.994 19.994 0 0 1 20 20z" fill="#3e3d42"/></g><g><path d="m476 72h-440a28.031 28.031 0 0 0 -28 28v312a28.031 28.031 0 0 0 28 28h440a28.031 28.031 0 0 0 28-28v-312a28.031 28.031 0 0 0 -28-28zm12 340a12.01 12.01 0 0 1 -12 12h-440a12.01 12.01 0 0 1 -12-12v-276h464zm0-292h-464v-20a12.01 12.01 0 0 1 12-12h440a12.01 12.01 0 0 1 12 12z"/><path d="m332 160h-152a28.031 28.031 0 0 0 -28 28v176a28.031 28.031 0 0 0 28 28h152a28.031 28.031 0 0 0 28-28v-176a28.031 28.031 0 0 0 -28-28zm-12 216h-16v-8a8 8 0 0 0 -16 0v8h-64v-8a8 8 0 0 0 -16 0v8h-16v-16a32.036 32.036 0 0 1 32-32h9.38a23.99 23.99 0 0 0 45.24 0h9.38a32.036 32.036 0 0 1 32 32zm-89.65-127.72c12.94 0 32.94-2.34 57.65-12.79v28.51a32 32 0 0 1 -64 0v-15.92c1.88.12 3.99.2 6.35.2zm-6.35-16.25v-.03a32.036 32.036 0 0 1 32-32c12.65 0 23.86 8.04 29.01 19.34-19.84 8.84-36.12 11.77-46.71 12.62a90.9 90.9 0 0 1 -14.3.07zm40 79.97v8a8 8 0 0 1 -16 0v-8zm80 52a12.014 12.014 0 0 1 -8 11.3v-15.3a48.051 48.051 0 0 0 -48-48h-8v-6.46a48.012 48.012 0 0 0 24-41.54v-32c0-.23-.01-.45-.03-.68a49.189 49.189 0 0 0 -13.93-32.66 47.054 47.054 0 0 0 -34.04-14.66 48.051 48.051 0 0 0 -48 48v32a48.012 48.012 0 0 0 24 41.54v6.46h-8a48.051 48.051 0 0 0 -48 48v15.3a12.014 12.014 0 0 1 -8-11.3v-176a12.01 12.01 0 0 1 12-12h152a12.01 12.01 0 0 1 12 12z"/><path d="m40 112h7a8 8 0 0 0 0-16h-7a8 8 0 0 0 0 16z"/><path d="m72 112h7a8 8 0 0 0 0-16h-7a8 8 0 0 0 0 16z"/><path d="m104 112h7a8 8 0 0 0 0-16h-7a8 8 0 0 0 0 16z"/></g></g></svg>